<?xml version="1.0" encoding="utf-8"?>
<!-- Generator: Adobe Illustrator 26.0.3, SVG Export Plug-In . SVG Version: 6.00 Build 0)  -->
<svg version="1.1" id="Layer_1" xmlns="http://www.w3.org/2000/svg" xmlns:xlink="http://www.w3.org/1999/xlink" x="0px" y="0px"
	 viewBox="0 0 369 92.2" style="enable-background:new 0 0 369 92.2;" xml:space="preserve">
<style type="text/css">
	.st0{fill:#02B8A6;}
	.st1{fill:#FF9235;}
	.st2{fill:#262626;}
</style>
<path class="st0" d="M69.6,1L43.8,15.7C41.4,17,40,19.5,40,22.1l0.2,29c0,2.6,1.5,5.1,3.8,6.4l14.6,8.3c2.3,1.3,5.2,1.3,7.5,0
	l13.8-7.9c2-1.2,2-4,0-5.1l-12.8-7.3c-7-4-7-14,0-18l26.2-14.8c1-0.6,1-2,0-2.6L77.2,1C74.8-0.3,72-0.3,69.6,1z"/>
<path class="st1" d="M88.5,26.4l-13.7,7.8c-2,1.2-2,4,0,5.1l12.7,7.3c7,4,7,14,0,18L63.7,78.2c-2,1.2-2,4,0,5.1l13.7,7.9
	c2.3,1.3,5.2,1.3,7.5,0l25.5-14.5c2.3-1.3,3.8-3.8,3.8-6.4V41.1c0-2.7-1.4-5.1-3.8-6.4l-14.5-8.3C93.7,25.1,90.8,25.1,88.5,26.4z"/>
<path class="st2" d="M141.5,23.1c0,1,0.5,1.7,1.4,2.3c1,0.6,2.1,1,3.4,1.4c1.3,0.3,2.7,0.7,4,1.2c1.3,0.4,2.5,1.2,3.4,2.3
	c1,1.1,1.4,2.4,1.4,4.1c0,2.2-0.9,4-2.6,5.4c-1.7,1.3-3.9,2-6.6,2c-2.4,0-4.4-0.5-6.2-1.6c-1.7-1.1-2.9-2.4-3.6-4.2l3.7-2.1
	c0.4,1.2,1.1,2.1,2.2,2.8c1.1,0.7,2.4,1,3.9,1c1.4,0,2.6-0.3,3.5-0.8c0.9-0.6,1.4-1.4,1.4-2.6c0-1-0.5-1.7-1.4-2.3
	c-1-0.6-2.1-1.1-3.4-1.4c-1.3-0.4-2.7-0.8-4-1.2c-1.3-0.5-2.5-1.2-3.4-2.3c-1-1.1-1.4-2.4-1.4-4c0-2.1,0.8-3.9,2.5-5.3
	c1.7-1.4,3.8-2.1,6.3-2.1c2,0,3.8,0.5,5.3,1.4c1.6,0.9,2.8,2.1,3.5,3.7l-3.6,2c-0.9-2.1-2.6-3.2-5.3-3.2c-1.2,0-2.2,0.3-3.1,0.9
	C141.9,21.2,141.5,22,141.5,23.1z M181.5,16.4h4.3V41h-4.3v-4.2c-2.1,3.3-5.2,4.9-9.3,4.9c-3.4,0-6.4-1.2-8.8-3.7
	c-2.4-2.5-3.6-5.6-3.6-9.2c0-3.6,1.2-6.7,3.6-9.2c2.4-2.5,5.4-3.8,8.8-3.8c4.1,0,7.2,1.6,9.3,4.9V16.4z M172.7,37.5
	c2.5,0,4.6-0.8,6.3-2.5c1.7-1.7,2.5-3.8,2.5-6.3c0-2.5-0.8-4.6-2.5-6.3c-1.7-1.7-3.8-2.6-6.3-2.6c-2.5,0-4.5,0.9-6.2,2.6
	c-1.7,1.7-2.5,3.8-2.5,6.3c0,2.5,0.8,4.6,2.5,6.3C168.2,36.7,170.3,37.5,172.7,37.5z M206,15.8c2.9,0,5.2,0.9,6.9,2.8
	c1.7,1.8,2.6,4.3,2.6,7.4V41h-4.3V26.2c0-2-0.5-3.5-1.6-4.6c-1.1-1.1-2.6-1.7-4.5-1.7c-2.1,0-3.9,0.7-5.2,2c-1.3,1.3-2,3.3-2,6.1V41
	h-4.3V16.4h4.3v3.5C199.7,17.2,202.4,15.8,206,15.8z M243.3,6.5h4.3V41h-4.3v-4.2c-2.1,3.3-5.2,4.9-9.3,4.9c-3.4,0-6.4-1.2-8.8-3.7
	c-2.4-2.5-3.6-5.6-3.6-9.2c0-3.6,1.2-6.7,3.6-9.2c2.4-2.5,5.4-3.8,8.8-3.8c4.1,0,7.2,1.6,9.3,4.9V6.5z M234.5,37.5
	c2.5,0,4.6-0.8,6.3-2.5c1.7-1.7,2.5-3.8,2.5-6.3c0-2.5-0.8-4.6-2.5-6.3c-1.7-1.7-3.8-2.6-6.3-2.6c-2.5,0-4.5,0.9-6.2,2.6
	c-1.7,1.7-2.5,3.8-2.5,6.3c0,2.5,0.8,4.6,2.5,6.3C230,36.7,232.1,37.5,234.5,37.5z M269.1,15.8c3.4,0,6.4,1.3,8.8,3.8
	c2.4,2.5,3.6,5.6,3.6,9.2c0,3.6-1.2,6.7-3.6,9.2c-2.4,2.5-5.4,3.7-8.8,3.7c-4.1,0-7.2-1.6-9.3-4.9V41h-4.3V6.5h4.3v14.1
	C261.9,17.4,265,15.8,269.1,15.8z M268.5,37.5c2.5,0,4.5-0.8,6.2-2.5c1.7-1.7,2.5-3.8,2.5-6.3c0-2.5-0.8-4.6-2.5-6.3
	c-1.7-1.7-3.7-2.6-6.2-2.6c-2.5,0-4.6,0.9-6.3,2.6c-1.7,1.7-2.5,3.8-2.5,6.3c0,2.5,0.8,4.6,2.5,6.3C264,36.7,266,37.5,268.5,37.5z
	 M308.9,37.9c-2.5,2.5-5.6,3.7-9.2,3.7c-3.6,0-6.7-1.2-9.2-3.7c-2.5-2.5-3.7-5.6-3.7-9.2c0-3.6,1.2-6.7,3.7-9.2
	c2.5-2.5,5.6-3.7,9.2-3.7c3.6,0,6.7,1.2,9.2,3.7c2.5,2.5,3.8,5.6,3.8,9.2C312.6,32.4,311.4,35.4,308.9,37.9z M299.6,37.5
	c2.5,0,4.5-0.8,6.2-2.5c1.7-1.7,2.5-3.8,2.5-6.3c0-2.5-0.8-4.6-2.5-6.3c-1.7-1.7-3.7-2.5-6.2-2.5c-2.4,0-4.5,0.8-6.2,2.5
	c-1.7,1.7-2.5,3.8-2.5,6.3c0,2.5,0.8,4.6,2.5,6.3C295.2,36.6,297.2,37.5,299.6,37.5z M338.7,41h-5l-6.9-9.3l-6.9,9.3h-5l9.5-12.7
	l-8.9-12h5.1l6.4,8.6l6.4-8.6h5l-8.9,11.9L338.7,41z"/>
<path class="st2" d="M169,83.7V62.2h7.5c1.5,0,2.7,0.3,3.7,0.8c1,0.5,1.7,1.2,2.2,2.1c0.5,0.9,0.7,1.8,0.7,2.9
	c0,0.9-0.2,1.7-0.5,2.3c-0.3,0.6-0.7,1.1-1.3,1.4c-0.5,0.4-1.1,0.6-1.7,0.8v0.2c0.7,0,1.3,0.3,2,0.7c0.7,0.4,1.2,1,1.7,1.8
	c0.4,0.8,0.7,1.7,0.7,2.9c0,1.1-0.2,2-0.7,2.9c-0.5,0.9-1.3,1.5-2.3,2c-1.1,0.5-2.4,0.8-4.1,0.8H169z M171.6,81.4h5.2
	c1.7,0,2.9-0.3,3.6-1c0.7-0.7,1.1-1.5,1.1-2.4c0-0.7-0.2-1.4-0.6-2c-0.4-0.6-0.9-1.1-1.6-1.5c-0.7-0.4-1.5-0.6-2.4-0.6h-5.3V81.4z
	 M171.6,71.6h4.8c0.8,0,1.5-0.2,2.1-0.5c0.6-0.3,1.1-0.7,1.5-1.3c0.4-0.6,0.6-1.2,0.6-2c0-0.9-0.3-1.7-1-2.4c-0.7-0.7-1.7-1-3.1-1
	h-4.9V71.6z M190.5,83.7h-2.7l7.9-21.5h2.7l7.9,21.5h-2.7l-6.4-18.1h-0.2L190.5,83.7z M191.5,75.3h11v2.3h-11V75.3z M228.1,62.2
	v21.5h-2.5l-11.7-16.9h-0.2v16.9H211V62.2h2.5l11.8,16.9h0.2V62.2H228.1z M234.7,83.7V62.2h2.6v10.7h0.3l9.7-10.7h3.4l-9,9.7l9,11.8
	h-3.1l-7.5-10l-2.7,3v7H234.7z M258,62.2v21.5h-2.6V62.2H258z M281.6,62.2v21.5h-2.5l-11.7-16.9h-0.2v16.9h-2.6V62.2h2.5l11.8,16.9
	h0.2V62.2H281.6z M302.9,68.9c-0.2-0.7-0.5-1.3-0.9-1.9c-0.4-0.6-0.8-1.1-1.3-1.4c-0.5-0.4-1.1-0.7-1.7-0.9
	c-0.7-0.2-1.4-0.3-2.1-0.3c-1.3,0-2.4,0.3-3.5,1c-1,0.7-1.9,1.6-2.5,2.9c-0.6,1.3-0.9,2.9-0.9,4.7c0,1.9,0.3,3.4,0.9,4.7
	c0.6,1.3,1.5,2.2,2.5,2.9c1.1,0.7,2.3,1,3.6,1c1.2,0,2.3-0.3,3.3-0.8c0.9-0.5,1.7-1.3,2.2-2.2c0.5-1,0.8-2.1,0.8-3.4l0.8,0.2h-6.5
	v-2.3h8.2v2.3c0,1.8-0.4,3.3-1.1,4.6c-0.7,1.3-1.8,2.3-3.1,3c-1.3,0.7-2.8,1.1-4.5,1.1c-1.9,0-3.6-0.4-5-1.3
	c-1.4-0.9-2.6-2.2-3.4-3.8c-0.8-1.7-1.2-3.6-1.2-5.9c0-1.7,0.2-3.2,0.7-4.6c0.5-1.4,1.1-2.5,2-3.5c0.8-1,1.8-1.7,3-2.2
	c1.1-0.5,2.4-0.8,3.8-0.8c1.1,0,2.2,0.2,3.2,0.5c1,0.3,1.9,0.8,2.6,1.4c0.8,0.6,1.4,1.4,1.9,2.2c0.5,0.9,0.9,1.8,1.1,2.8H302.9z"/>
</svg>
